<?xml version="1.0" standalone="no"?>
<!DOCTYPE svg PUBLIC "-//W3C//DTD SVG 20010904//EN"
 "http://www.w3.org/TR/2001/REC-SVG-20010904/DTD/svg10.dtd">
<svg version="1.0" xmlns="http://www.w3.org/2000/svg"
 width="512.000000pt" height="512.000000pt" viewBox="0 0 512.000000 512.000000"
 preserveAspectRatio="xMidYMid meet">
<metadata>
Created by potrace 1.11, written by Peter Selinger 2001-2013
</metadata>
<g transform="translate(0.000000,512.000000) scale(0.100000,-0.100000)"
fill="#000000" stroke="none">
<path d="M0 2560 l0 -2560 2560 0 2560 0 0 2560 0 2560 -2560 0 -2560 0 0
-2560z m1210 1075 l0 -136 -82 3 -83 3 -3 53 -3 52 -90 0 -89 0 2 -357 3 -358
48 -8 47 -9 0 -64 0 -64 -210 0 -210 0 0 64 0 64 53 9 52 8 3 358 2 357 -95 0
-95 0 0 -55 0 -55 -80 0 -80 0 0 135 0 135 455 0 455 0 0 -135z m3520 -35 l0
-90 65 0 65 0 0 -75 0 -75 -65 0 -65 0 0 -210 c0 -201 1 -211 21 -231 18 -18
30 -20 70 -17 l48 5 6 -56 c12 -96 12 -93 -20 -103 -59 -17 -178 -12 -221 10
-97 49 -107 84 -112 370 l-4 232 -54 0 -54 0 0 75 0 75 55 0 55 0 0 90 0 90
105 0 105 0 0 -90z m-3066 -109 c127 -62 196 -194 196 -369 -1 -234 -137 -383
-350 -384 -137 -1 -230 42 -295 136 -134 195 -77 512 110 608 65 34 85 37 190
35 82 -2 109 -7 149 -26z m1034 13 c2 -1 6 -21 9 -44 l6 -41 29 36 c41 48 77
65 144 65 l56 0 -5 -42 c-4 -24 -9 -68 -12 -98 l-7 -55 -69 0 c-53 -1 -74 -5
-96 -21 l-28 -21 0 -194 0 -194 43 -9 42 -9 0 -63 0 -64 -200 0 -200 0 0 64 0
64 48 9 47 8 3 232 c3 258 9 234 -70 248 -34 6 -36 5 -42 -22 -6 -27 -8 -28
-76 -28 -63 -1 -72 -3 -100 -30 l-30 -29 2 -185 3 -186 48 -8 47 -9 0 -64 0
-64 -205 0 -205 0 0 63 0 64 48 9 47 9 3 229 c2 169 -1 232 -9 237 -7 4 -32
10 -56 14 l-43 6 0 65 0 64 155 0 155 0 0 -47 1 -48 27 33 c59 71 63 72 287
65 110 -3 202 -7 203 -9z m718 -17 c111 -57 164 -169 164 -349 l0 -68 -225 0
-225 0 0 -27 c0 -37 39 -99 76 -123 44 -30 160 -27 238 5 33 13 61 23 62 22 1
-1 14 -29 29 -62 l26 -60 -21 -17 c-81 -65 -301 -91 -414 -48 -53 20 -117 72
-151 123 -115 174 -71 480 84 583 69 45 108 55 211 51 79 -3 104 -8 146 -30z
m805 5 c45 -24 59 -37 84 -87 l30 -58 5 -226 5 -226 48 -9 47 -8 0 -64 0 -64
-195 0 -195 0 0 65 0 65 40 6 40 7 0 194 c0 215 -6 241 -60 263 -41 17 -111 8
-149 -19 l-31 -23 2 -206 3 -206 38 -9 37 -9 0 -64 0 -64 -195 0 -195 0 0 64
0 64 48 9 47 8 3 229 c2 169 -1 232 -9 237 -7 4 -32 10 -56 14 l-43 6 0 65 0
65 153 -3 152 -3 3 -42 c2 -24 5 -43 7 -43 1 0 18 14 36 32 80 75 202 91 300
40z m-3241 -1150 c111 -44 174 -126 186 -240 11 -97 -26 -175 -107 -229 l-40
-26 50 -28 c67 -39 99 -103 107 -219 7 -92 21 -120 61 -120 22 0 23 -3 23 -66
l0 -66 -94 4 c-76 2 -100 7 -122 24 -57 42 -66 65 -73 176 -12 175 -46 208
-219 208 l-103 0 3 -132 3 -133 53 -8 52 -9 0 -64 0 -64 -210 0 -210 0 0 64 0
64 53 9 52 8 3 359 c2 268 -1 362 -10 367 -6 4 -31 10 -55 14 l-43 6 0 65 0
66 293 -4 c272 -4 296 -5 347 -26z m3320 -142 l0 -90 65 0 65 0 0 -75 0 -75
-65 0 -65 0 0 -210 c0 -201 1 -211 21 -231 18 -18 30 -20 70 -17 l48 5 7 -68
c4 -38 7 -72 8 -76 2 -12 -59 -24 -135 -25 -105 -1 -160 28 -203 107 -19 37
-21 57 -24 278 l-4 237 -54 0 c-45 0 -54 -3 -54 -17 0 -15 -8 -18 -53 -15 -63
4 -118 -16 -141 -51 -14 -20 -16 -53 -14 -203 l3 -179 48 -8 47 -9 0 -64 0
-64 -200 0 -200 0 0 64 0 65 45 7 45 6 0 234 c0 179 -3 236 -12 239 -7 2 -30
6 -50 10 l-38 6 0 64 0 65 150 0 150 0 0 -32 c0 -51 13 -61 34 -30 40 60 61
67 184 65 l112 -2 0 90 0 89 105 0 105 0 0 -90z m-2580 -96 c39 -12 66 -29
105 -67 67 -67 86 -120 92 -259 l6 -108 -227 0 c-221 0 -226 0 -226 -20 0 -34
26 -83 59 -115 29 -27 40 -30 109 -33 74 -4 96 1 193 42 12 5 22 -7 44 -55
l28 -63 -22 -17 c-61 -50 -221 -83 -329 -68 -209 29 -329 218 -294 462 21 144
97 255 205 296 65 25 182 27 257 5z m794 4 c60 -18 137 -99 165 -173 65 -174
39 -406 -57 -517 -85 -96 -268 -109 -360 -25 l-23 21 3 -104 3 -105 48 -9 47
-9 0 -64 0 -63 -205 0 -205 0 0 64 0 64 48 9 47 8 3 374 c2 279 -1 377 -10
382 -6 4 -31 10 -55 14 l-43 6 0 65 0 64 149 0 149 0 6 -35 7 -36 38 30 c21
17 49 35 62 40 34 14 135 13 183 -1z m738 -21 c70 -34 130 -100 160 -176 20
-48 23 -74 23 -186 0 -120 -2 -134 -26 -186 -71 -151 -210 -222 -387 -198
-119 17 -207 83 -259 194 -24 52 -28 76 -31 171 -5 130 10 195 60 270 73 106
160 146 308 141 81 -2 105 -7 152 -30z"/>
<path d="M1415 3327 c-92 -92 -82 -362 16 -412 15 -8 51 -15 80 -15 46 0 55 4
85 35 42 45 58 115 52 227 -7 135 -55 198 -153 198 -40 0 -52 -5 -80 -33z"/>
<path d="M3191 3344 c-24 -17 -60 -86 -61 -116 0 -16 12 -18 121 -18 l122 0
-6 47 c-7 64 -49 103 -110 103 -23 0 -53 -7 -66 -16z"/>
<path d="M650 2065 l0 -148 108 5 c82 3 115 9 140 23 84 50 81 186 -4 242 -21
14 -53 19 -136 22 l-108 3 0 -147z"/>
<path d="M1538 1945 c-26 -15 -68 -87 -68 -118 0 -15 15 -17 126 -17 l126 0
-7 33 c-12 58 -16 66 -46 92 -35 29 -88 33 -131 10z"/>
<path d="M2310 1953 c-8 -3 -27 -17 -42 -31 l-28 -26 0 -172 0 -172 31 -26
c40 -34 132 -37 172 -6 82 65 84 333 2 410 -25 23 -102 37 -135 23z"/>
<path d="M3024 1950 c-56 -22 -87 -102 -88 -226 0 -149 49 -224 148 -224 88 0
130 48 147 167 17 118 -16 238 -75 274 -32 20 -95 24 -132 9z"/>
</g>
</svg>
